# xmcd
#
# Track frame offsets: 
#        150
#        11822
#        23000
#        35687
#        46352
#        59570
#        69447
#        82955
#        98705
#        122437
#        132992
#        146495
#        163357
#        179152
#        204515
#        218702
#        233325
#
# Disc length: 3365 seconds
#
# Revision: 1
# Processed by: cddbd v1.5.2PL0 Copyright (c) Steve Scherf et al.
# Submitted via: ExactAudioCopy v1.0b3
#
DISCID=ee0d2311
DTITLE=Various Artist - Funky Blues, New Standards
DYEAR=1999
DGENRE=Blues
TTITLE0=Bobby Rush - Chicken Heads
TTITLE1=Bobby Rush - Mary Jane
TTITLE2=Roger Collins - Foxy Girls In Oakland
TTITLE3=Albert Collins - The Freeze
TTITLE4=Larry Davis - Whole World Down On You
TTITLE5=Fenton Robinson - You're Cracking Me Up
TTITLE6=Phillip Walker - I Can't Lose
TTITLE7=Johnny Guitar Watson - I Don't Want To Be A Lone Ranger
TTITLE8=Roy Caines - Lowdown and Funky
TTITLE9=Lally Davis - You Upset Me Baby
TTITLE10=Little Sonny - Stretchin' Out
TTITLE11=Bobby Rush - I'm Cone
TTITLE12=Syl Johnson - Sexy Ways
TTITLE13=Smokey Wilson - Deuce and Quarter
TTITLE14=Syl Johnson - Who's Still In Love
TTITLE15=Little Sonny - Love Mechanic
TTITLE16=Smokey Wilson - Push
EXTD=
EXTT0=
EXTT1=
EXTT2=
EXTT3=
EXTT4=
EXTT5=
EXTT6=
EXTT7=
EXTT8=
EXTT9=
EXTT10=
EXTT11=
EXTT12=
EXTT13=
EXTT14=
EXTT15=
EXTT16=
PLAYORDER=
